<svg xmlns="http://www.w3.org/2000/svg" viewBox="0 0 807.28101 985.13757" height="985.138" width="807.281"><path d="M11.293 964.833c-6.212-11.167-11.293-77.135-11.293-146.596 0-124.696.403-126.734 31.976-161.336 39.876-43.701 124.109-88.564 183.417-97.691 51.733-7.96 38.101-28.243 134.393 199.959l53.036 125.69 23.281-53.907c12.805-29.648 46.45-102.742 74.767-162.431l51.484-108.523 47.23 2.139c60.058 2.72 156.949 47.993 185.616 86.732 19.527 26.388 22.081 46.107 22.081 170.457 0 95.373-4.212 144.67-13.091 153.214-9.68 9.315-111.916 12.597-392.348 12.597-363.794 0-379.716-.829-390.549-20.305zm386.611-374.322c-5.845-1.402-29.33-5.565-52.188-9.251-49.611-7.999-119.806-65.26-150.14-122.475-23.53-44.381-27.644-124.08-9.053-175.397 6.587-18.182 13.705-33.058 15.819-33.058 2.113 0 48.57 18.667 103.238 41.482l99.396 41.482 100.15-41.797c112.947-47.138 119.398-45.512 133.286 33.585 15.548 88.551-38.601 196.824-118.479 236.906-34.751 17.438-102.358 33.239-122.029 28.521zm-379.206-147.233c-13.579-13.067-8.416-53.412 8.575-66.98 12.596-10.06 16.363-37.826 16.363-120.637v-107.569l180.799-74.047 180.799-74.046 168.296 69.12c92.563 38.016 168.158 71.903 167.989 75.304-.304 6.099-287.426 124.407-324.665 133.777-10.55 2.655-92.703-25.459-182.563-62.474l-163.381-67.302-3.125 104.814c-2.528 84.784.252 108.398 14.512 123.568 9.701 10.315 16.016 29.772 14.034 43.238-2.741 18.63-11.523 25.231-36.724 27.606-18.215 1.717-36.623-.25-40.909-4.374z"/></svg>