<svg xmlns="http://www.w3.org/2000/svg" viewBox="0 0 31.771 31.771" fill="#726966">
  <path d="M31.771 20.319c0-.474-.279-.87-.676-1.066v-7.353c.09-.034.146-.119.145-.214 0-.095-.062-.179-.149-.21l-15.171-5.351c-.194-.069-.406-.069-.601 0l-15.169 5.352c-.089.031-.149.115-.15.21s.056.18.144.214l15.148 5.896c.211.081.444.081.655 0l14.102-5.492v6.947c-.396.195-.675.594-.675 1.065 0 .492.3.919.729 1.102-.429.847-.729 2.585-.729 3.081 0 .661.537 1.197 1.198 1.197.66 0 1.197-.536 1.197-1.197 0-.496-.301-2.234-.729-3.081.43-.181.731-.608.731-1.1zM4.888 14.87l.002 4.009c0 3.158 4.753 5.729 10.73 5.89 5.976-.161 10.729-2.729 10.729-5.89l.002-4.009-10.406 4.051c-.211.082-.444.082-.655 0l-10.402-4.051z"/>
</svg>