<svg xmlns="http://www.w3.org/2000/svg" viewBox="0 0 250.579 250.579" enable-background="new 0 0 250.579 250.579"><path d="M22.373 76.068h205.832c12.356 0 22.374-10.017 22.374-22.373 0-12.356-10.017-22.373-22.374-22.373h-205.832c-12.356.001-22.373 10.017-22.373 22.374 0 12.356 10.017 22.372 22.373 22.372zm205.832 26.848h-205.832c-12.356 0-22.373 10.017-22.373 22.373 0 12.357 10.017 22.373 22.373 22.373h205.832c12.356 0 22.374-10.016 22.374-22.373 0-12.356-10.018-22.373-22.374-22.373zm0 71.594h-205.832c-12.356 0-22.373 10.016-22.373 22.373 0 12.356 10.017 22.373 22.373 22.373h205.832c12.356 0 22.374-10.017 22.374-22.373 0-12.357-10.018-22.373-22.374-22.373z" fill-rule="evenodd" clip-rule="evenodd"/></svg>