<svg xmlns="http://www.w3.org/2000/svg" width="994.07" height="991.77" viewBox="0 0 994.07037 991.76959"><path d="M497.035 0c-131.822 0-258.245 52.246-351.457 145.242-93.212 92.996-145.578 219.126-145.578 350.643 0 131.517 52.366 257.646 145.578 350.643 93.212 92.996 219.635 145.242 351.457 145.242s258.245-52.246 351.457-145.242c93.212-92.996 145.578-219.126 145.578-350.643 0-131.517-52.366-257.646-145.578-350.643-93.212-92.996-219.635-145.242-351.457-145.242zm278.648 384.928c23.515 0 42.668 6.322 57.463 18.963 14.795 12.542 21.947 28.048 21.457 46.516l-.293.889h-41.592c0-9.975-3.332-18.023-9.994-24.146-6.565-6.222-15.824-9.334-27.777-9.334-11.463 0-20.329 2.57-26.6 7.705-6.271 5.136-9.406 11.702-9.406 19.701 0 7.308 3.332 13.334 9.994 18.074 6.76 4.642 18.37 9.578 34.83 14.813 23.613 6.617 41.493 15.357 53.642 26.221 12.149 10.864 18.225 25.135 18.225 42.813 0 18.468-7.251 33.035-21.752 43.701-14.403 10.666-33.459 15.998-57.17 15.998-23.319 0-43.648-6.024-60.99-18.072-17.342-12.147-25.767-29.133-25.277-50.959l.293-.889h41.738c0 12.839 3.871 22.269 11.611 28.293 7.838 5.926 18.712 8.889 32.625 8.889 11.659 0 20.576-2.419 26.748-7.258 6.173-4.839 9.26-11.308 9.26-19.406 0-8.296-2.94-14.963-8.818-20-5.781-5.037-15.97-9.777-30.568-14.221-25.474-7.407-44.727-16.197-57.758-26.369-13.031-10.172-19.547-24.098-19.547-41.775 0-17.678 7.447-32.096 22.34-43.256 14.991-11.259 34.096-16.889 57.316-16.889zm-637.246 3.111h42.914v215.691h-42.914v-215.691zm85.535 0h146.231v33.332h-103.316v54.219h88.619v33.33h-88.619v61.627h103.611v33.184h-146.525v-215.691zm172.832 0h42.914v182.508h95.234v33.184h-138.149v-215.691zm115.809 0h163.721v33.332h-60.551v182.359h-42.914v-182.359h-60.256v-33.332z"/></svg>