<svg xmlns="http://www.w3.org/2000/svg" width="999.441" height="1000.917" viewBox="0 0 999.44128 1000.9173"><path d="M499.718 0a499.721 501.617 0 0 0-499.718 501.613 499.721 501.617 0 0 0 201.854 402.028c11.7-24.847 23.754-50.452 32.252-68.491 15.454-32.806 29.011-61.684 30.128-64.177l2.032-4.533h80.702c76.588 0 80.689-.049 80.411-1.02-.16-.563-22.401-47.342-49.423-103.948-34.783-72.865-49.703-104.71-51.098-109.057-5.802-18.082-8.427-34.875-8.456-54.09-.042-27.032 5.34-51.143 16.842-75.437 35.619-75.238 118.211-114.241 198.115-93.56 58.193 15.062 104.468 60.38 122.108 119.583 10.129 33.993 9.112 73.392-2.756 107.013-.738 2.09-23.323 49.851-50.191 106.135-26.868 56.285-48.979 102.799-49.137 103.362-.271.971 3.827 1.018 80.351 1.025h80.643l22.612 48.093c14.495 30.83 31.109 66.105 46.673 99.163a499.721 501.617 0 0 0 215.778-412.087 499.721 501.617 0 0 0-499.723-501.613zm-7.765 436.103c-6.186-.111-12.705.564-17.712 1.963-21.34 5.963-37.897 23.062-43.615 45.05-1.3 4.998-1.526 7.123-1.572 14.62-.069 11.752 1.667 19.467 6.598 29.246 12.191 24.178 38.615 37.49 65.374 32.935 21.843-3.717 40.941-20.488 47.84-42.008 2.426-7.566 2.909-10.969 2.853-20.174-.044-7.463-.28-9.624-1.55-14.489-6.237-23.869-24.136-41.119-47.835-46.087-3.074-.644-6.668-.991-10.38-1.058zm-210.121 354.895l-18.533 39.377c-10.193 21.655-18.528 39.545-18.528 39.76 0 .647 1.587.454 6.284-.762 10.566-2.736 16.174-5.984 35.802-20.754 19.609-14.756 32.983-21.619 51.325-26.335 10.453-2.687 27.677-4.962 37.612-4.967h4.469v-26.319000000000003h-98.43100000000001zm315.792 0v1.902c.027 5.541 4.404 17.875 8.521 23.934 7.371 10.848 21.857 19.583 39.93 24.082 16.456 4.096 36.098 5.892 67.065 6.129 10.985.084 11.989.001 11.655-.877h.01c-.202-.533-6.109-13.163-13.124-28.067l-12.752-27.102h-101.3zm-204.966.296v13.091c0 11.057.136 13.165.865 13.529.476.239 3.106.854 5.846 1.376 6.502 1.239 12.847 3.415 19.063 6.54 15.618 7.852 26.919 18.277 50.045 46.152 15.982 19.265 22.957 27.1 31.387 35.254 40.226 38.908 89.894 54.349 164.015 50.993 26.888-1.217 48.019-4.615 63.601-10.196a499.721 501.617 0 0 0 22.769-13.113c1.8-1.748 3.394-3.583 4.712-5.526 1.79-2.639 4.098-8.189 4.106-9.878 0-.41-6.265-14.055-13.924-30.326l-13.924-29.586-21.683-.378c-30.425-.529-44.466-1.703-60.684-5.087-14.073-2.937-27.776-8.38-36.861-14.637-4.583-3.156-11.375-9.71-14.762-14.242-5.386-7.207-9.895-18.803-11.39-29.29l-.67-4.676h-44.258l-16.88 35.375c-9.284 19.458-20.659 43.259-25.276 52.889l-8.396 17.515-10.607-22.191c-5.832-12.204-17.187-36.004-25.233-52.889l-14.627-30.699h-47.235zm-12.395 38.121l-7.916.406c-19.384.987-35.476 4.53-50.029 11.013-7.957 3.545-17.394 9.48-29.118 18.32-5.867 4.424-12.744 9.419-15.281 11.101-11.311 7.498-21.287 11.253-33.862 12.751l-5.879.702-16.28 34.58a499.721 501.617 0 0 0 158.363 69.774v-158.647zm12.395 1.058l-.146 84.499c-.068 38.24-.028 65.621.07 76.248a499.721 501.617 0 0 0 57.728 9.528c25.186.097 59.605.132 93.46.17a499.721 501.617 0 0 0 136.032-31.444c-5.274.46-10.737.843-16.485 1.113-63.583 2.987-112.35-8.906-150.793-36.767-17.499-12.682-29.98-25.454-56.718-58.026-10.88-13.254-24.978-27.635-32.014-32.661-8.853-6.324-21.364-11.633-29.405-12.477l-1.729-.181z"/></svg>