<svg xmlns="http://www.w3.org/2000/svg" width="996.202" height="963.562" viewBox="0 0 996.20215 963.56201"><path d="M498.101 0a498.102 499.998 0 0 0-498.101 499.998 498.102 499.998 0 0 0 222.064 415.873 407.144 429.083 0 0 1-131.412-314.984 407.144 429.083 0 0 1 407.143-429.084 407.144 429.083 0 0 1 407.145 429.084 407.144 429.083 0 0 1-132.27 315.938 498.102 499.998 0 0 0 223.532-416.826 498.102 499.998 0 0 0-498.101-499.998zm-1.727 234.218a344.34 364.673 0 0 0-344.34 364.672 344.34 364.673 0 0 0 344.34 364.672 344.34 364.673 0 0 0 344.34-364.672 344.34 364.673 0 0 0-344.34-364.672zm3.104 66.987c34.78 0 58.198 21.87 60.972 56.941.841 10.635.55 23.424-.645 28.419-3.05 12.739-22.138 34.513-35.32 40.288-13.91 6.093-37.253 6.022-50.772-.155-12.648-5.778-31.61-27.797-34.564-40.135-1.196-4.995-1.487-17.785-.645-28.419 2.774-35.071 26.195-56.941 60.974-56.941zm-58.794 159.245h20.24l18.235 25.148c10.03 13.832 19.174 25.15 20.32 25.15 1.146 0 10.288-11.318 20.318-25.15l18.235-25.148h20.24c23.486 0 40.779 6.526 48.699 18.383 4.798 7.182 5.585 20.817 5.574 96.487 0 80.544-.578 89.096-6.588 99.43-3.978 6.84-11.417 12.981-18.834 15.548l-12.258 4.242v100.499c0 107.649-.958 114.444-17.877 126.868-4.199 3.084-14.349 5.608-22.556 5.608-11.923 0-16.935-2.111-24.938-10.502l-10.015-10.502-10.017 10.502c-8.004 8.392-13.015 10.502-24.938 10.502-8.206 0-18.356-2.524-22.556-5.608-16.918-12.425-17.877-19.22-17.877-126.869v-100.499l-12.258-4.242c-7.417-2.567-14.856-8.708-18.834-15.548-6.01-10.334-6.576-18.886-6.588-99.43 0-75.67.776-89.305 5.574-96.487 7.92-11.856 25.213-18.383 48.699-18.383z"/></svg>