<svg xmlns="http://www.w3.org/2000/svg" width="984.916" height="995.392" viewBox="0 0 984.91553 995.3916"><path d="M492.458 0a492.459 497.696 0 0 0-492.458 497.696 492.459 497.696 0 0 0 314.363 463.452c8.9-9.278 23.362-22.511 47.226-44.44l53.631-49.281 30.537 30.316 30.537 30.316-54.772 50.138c-4.042 3.7-7.14 6.524-10.674 9.756a492.459 497.696 0 0 0 12.662 1.933c8.665-8.183 21.759-20.14 42.392-38.838 54.919-49.769 62.826-56.085 70.156-56.021 5.315.043 13.303 4.102 16.474 8.37 4.403 5.924 4.928 16.272 1.113 21.879-1.579 2.32-28.165 27.286-59.081 55.481-6.302 5.747-10.348 9.392-15.39 13.966a492.459 497.696 0 0 0 13.283.671 492.459 497.696 0 0 0 492.458-497.696 492.459 497.696 0 0 0-492.458-497.696zm-326.387 374.522l326.483 6.47 326.483 6.47 6.032 3.539c3.715 2.183 7.28 5.723 9.285 9.22l3.253 5.681-3.219 181.952c-2.34 132.238-3.692 184.054-4.913 189.628-3.418 15.474-15.213 29.766-29.402 35.625-11.926 4.925-22.779 5.52-74.29 4.069-46.295-1.303-47.981-1.437-53.326-4.3-7.661-4.105-11.983-9.708-13.594-17.607-1.589-7.796-.095-13.45 5.286-20.053 6.962-8.545 6.7-8.513 62.808-8.116l50.711.361 2.88-127.424 2.88-127.418-293.376-5.816-293.376-5.811-2.191 127.435-2.191 127.435 131.123 3.246c147.094 3.638 135.731 2.583 143.181 13.284 3.324 4.775 3.835 6.733 3.688 14.135-.144 7.214-.786 9.439-3.998 13.881-2.104 2.91-6.432 6.556-9.624 8.105l-5.806 2.818-130.462-2.395c-74.109-1.361-133.638-2.968-137.815-3.725-21.904-3.967-38.664-20.315-42.448-41.391-1.008-5.618-.292-57.441 2.632-189.667l4.021-181.94 3.479-5.54c2.143-3.415 5.843-6.815 9.641-8.848l6.167-3.303zm88.387 179.9l111.254 1.843c76.655 1.27 112.93 2.311 116.653 3.348 6.882 1.915 15.299 9.436 17.225 15.386 3.62 11.185-1.395 24.374-11.498 30.231l-4.789 2.779-112.892-1.905-112.886-1.911-7.009-3.303c-18.621-8.772-19.128-33.247-.909-43.69l4.851-2.779zm360.561 7.22c8.957-.035 22.783.147 44.747.44l59.227.783 7.161 3.303c7.872 3.627 13.075 10.552 14.594 19.439 1.496 8.751-4.178 19.144-13.306 24.375-4.802 2.752-5.461 2.776-64.344 1.95l-59.487-.834-7.009-3.319c-18.62-8.81-19.128-33.264-.909-43.707 2.999-1.719 4.398-2.371 19.326-2.429zm-347.459 69.509c14.555-.104 42.212.357 97.339 1.274 75.842 1.26 112.293 2.304 115.981 3.331 6.858 1.908 15.273 9.438 17.197 15.38 3.62 11.184-1.396 24.374-11.499 30.231l-4.789 2.779-113.564-1.939c-107.961-1.845-113.832-2.065-118.98-4.436-19.119-8.798-19.364-35.271-.412-44.524 2.723-1.329 4.173-1.993 18.728-2.096zm432.558 20.78c3.449-.192 6.472 1.402 9.545 4.695 5.712 6.121 4.368 11.03-5.676 20.752-7.984 7.726-8.974 9.308-12.052 19.32-4.26 13.851-18.312 40.055-31.164 58.118-9.208 12.941-15.557 19.153-83.778 81.93-40.598 37.358-74.138 67.916-74.538 67.908-.4 0-14.308-13.506-30.904-30l-30.176-29.994 75.431-68.973c70.614-64.572 76.442-69.584 91.177-78.391 23.595-14.103 56.56-28.248 65.418-28.073 1.194.029 5.817-3.339 10.278-7.473 6.866-6.365 12.007-9.57 16.441-9.818z"/></svg>