<svg xmlns="http://www.w3.org/2000/svg" width="991.094" height="981.734" viewBox="0 0 991.09369 981.73438"><path d="M495.547 0a495.547 490.868 0 0 0-495.547 490.867 495.547 490.868 0 0 0 495.547 490.867 495.547 490.868 0 0 0 495.547-490.867 495.547 490.868 0 0 0-495.547-490.867zm139.693 218.459c12.332 0 21.388 1.464 27.168 4.389 5.973 2.73 11.656 6.141 17.051 10.236 5.395 4.095 10.694 8.58 15.896 13.455 5.202 4.68 10.791 9.069 16.764 13.164 1.542 2.535 2.313 6.24 2.313 11.115 0 4.68-3.084 8.383-9.25 11.113 10.983 12.87 16.475 33.054 16.475 60.549 0 27.3-5.779 56.744-17.34 88.334-11.561 31.395-27.94 57.624-49.135 78.684-21.002 20.865-44.701 31.297-71.098 31.297s-46.435-12.383-60.115-37.148c-11.368-20.67-17.053-46.507-17.053-77.512 0-49.725 9.731-94.478 29.191-134.258 14.644-29.835 34.874-51.089 60.693-63.764 13.488-6.435 26.301-9.654 38.439-9.654zm-181.141 7.678c5.522 0 8.283 3.119 8.283 9.359v2.926c0 .975-.212 2.047-.637 3.217l-1.912 5.85h.637l-1.273 2.049c-27.398 94.965-45.028 179.594-52.887 253.889 19.115-.78 37.063-1.17 53.842-1.17h27.398c1.911 0 4.885.196 8.92.586 4.248.195 8.602.389 13.063.584 7.221 1.755 10.832 5.752 10.832 11.992 0 6.045-3.929 11.018-11.787 14.918-2.549 1.17-5.098 1.756-7.646 1.756l-44.92-2.926-154.834 2.34c-4.46 2.34-8.177 3.51-11.15 3.51-7.646 0-11.469-3.509-11.469-10.529 0-10.92 2.549-16.381 7.646-16.381 28.885 0 49.486-.486 61.805-1.461 12.319-.975 21.983-1.659 28.992-2.049 6.584-58.11 12.318-97.304 17.203-117.584 4.885-20.475 10.407-40.171 16.566-59.086-18.69 25.935-40.885 50.116-66.584 72.541-3.823 2.34-7.434 3.51-10.832 3.51-7.859 0-11.789-3.607-11.789-10.822 0-2.925 1.276-6.338 3.824-10.238 22.301-20.865 36.53-35.1 42.689-42.705 6.372-7.605 12.426-15.015 18.16-22.23 5.947-7.215 11.895-16.183 17.842-26.908 5.947-10.725 11.681-20.865 17.203-30.42 5.522-9.75 10.938-17.94 16.248-24.57 5.522-6.63 11.044-9.945 16.566-9.945zm182.586 20.988c-23.507 0-43.258 9.458-59.25 28.373-15.8 18.72-27.071 41.925-33.815 69.615-6.744 27.495-10.115 53.526-10.115 78.096s2.6 43.388 7.803 56.453c5.395 12.87 11.369 22.522 17.92 28.957 6.551 6.24 15.415 9.361 26.59 9.361 21.773 0 40.943-10.044 57.514-30.129 16.57-20.28 28.902-44.069 36.994-71.369 8.285-27.3 12.428-49.336 12.428-66.106 0-16.965-3.179-33.442-9.537-49.432-.771-1.95-1.156-4.875-1.156-8.775 0-3.9 2.506-7.897 7.516-11.992-3.083-2.34-6.456-5.363-10.117-9.068-16.378-15.99-30.635-23.984-42.773-23.984zm81.67 337.453c1.94 0 3.247 1.087 3.918 3.264-.224 5.099-1.194 11.876-2.91 20.332-1.716 8.456-3.469 19.182-5.26 32.178-1.791 12.933-5.222 30.592-10.295 52.977-5.073 22.384-10.781 44.707-17.123 66.967-1.417 2.549-3.544 3.824-6.379 3.824-2.313 0-3.619-1.275-3.918-3.824 13.877-49.246 23.577-93.671 29.098-133.279.97-6.404 2.164-12.716 3.582-18.934 1.418-6.218 2.313-12.529 2.686-18.934.448-1.244 1.306-2.301 2.574-3.172 1.268-.933 2.61-1.398 4.027-1.398zm-105 27.27c10.558 0 19.886.554 27.984 1.664 8.098.999 14.3 1.722 18.605 2.166 4.408.444 7.022 1.277 7.842 2.498.923 1.221 1.385 2.775 1.385 4.662s-.974 3.832-2.922 5.83c-1.948 1.998-4.715 2.996-8.303 2.996-3.485 0-9.432-.943-17.838-2.83-8.303-1.998-16.709-2.998-25.217-2.998-21.219 0-40.592 3.164-58.121 9.492-.513.222-.975.334-1.385.334h-1.23c-2.563 0-4.714-.778-6.457-2.332-1.743-1.665-2.613-3.331-2.613-4.996 0-1.776.717-3.165 2.152-4.164 17.529-8.216 39.568-12.322 66.117-12.322zm-97.947 2.33c6.356 0 11.328 2.887 14.916 8.66 3.69 5.662 5.535 12.379 5.535 20.15 0 14.544-3.536 26.869-10.609 36.973-6.971 10.103-15.581 18.373-25.832 24.813-10.251 6.439-22.039 12.545-35.365 18.318l-.615 24.482c0 19.096 5.329 28.643 15.99 28.643 5.74 0 11.737-1.775 17.99-5.328 6.356-3.664 10.918-6.274 13.685-7.828 2.768-1.665 4.921-2.498 6.459-2.498 3.588 0 5.381 2.054 5.381 6.162 0 4.774-5.381 10.159-16.145 16.154-10.763 5.995-19.733 8.992-26.908 8.992-7.176 0-12.559-1.276-16.146-3.83-3.588-2.554-6.508-6.106-8.764-10.658-4.408-8.882-6.611-19.595-6.611-32.141 0-22.205 3.074-43.132 9.225-62.783 6.151-19.651 14.351-35.918 24.602-48.797 10.251-12.99 21.322-19.484 33.213-19.484zm-109.017 3.164c3.793 0 5.689 2.166 5.689 6.496 0 3.442-1.998 11.602-5.996 24.48-3.998 12.768-7.638 28.978-10.918 48.629-3.178 19.54-4.766 39.857-4.766 60.951 0 11.213 2.102 17.431 6.305 18.652 1.025.222 2.254.334 3.689.334 1.538 0 2.972-.167 4.305-.5 1.435-.333 2.82-.889 4.152-1.666 1.333-.888 2.819-2.055 4.459-3.498 1.64-1.554 3.638-3.385 5.996-5.494 2.46-2.109 4.614-3.164 6.459-3.164 3.895 0 5.844 2.164 5.844 6.494s-3.998 9.159-11.994 14.488c-7.893 5.329-15.171 7.994-21.834 7.994-13.531 0-20.297-15.766-20.297-47.297 0-7.328.616-15.764 1.846-25.313-7.586 21.095-18.043 38.691-31.369 52.791-13.224 13.989-26.395 20.984-39.516 20.984-7.688 0-13.274-1.498-16.76-4.496-5.433-4.885-9.483-12.047-12.149-21.484-.41-1.11-.615-2.554-.615-4.33 0-1.887.873-3.83 2.615-5.828 1.64-2.11 3.535-3.164 5.688-3.164 2.05 0 3.793 1.277 5.229 3.83 0 13.878 6.1 20.816 18.299 20.816 9.431 0 18.707-5.106 27.83-15.32 9.123-10.325 17.222-23.204 24.295-38.637 7.073-15.432 11.994-28.2 14.762-38.303 2.768-10.214 5.535-20.151 8.303-29.811 2.768-9.659 5.894-18.485 9.379-26.479 3.588-8.105 7.278-12.158 11.07-12.158zm104.713 12.99c-6.15 0-13.377 5.996-21.68 17.986-8.303 11.991-15.173 27.812-20.605 47.463-1.333 4.774-2.102 8.382-2.307 10.824 4.1-2.443 8.304-4.774 12.609-6.994 4.305-2.22 8.509-4.552 12.609-6.994 9.431-5.662 16.709-12.269 21.834-19.818 5.228-7.661 7.842-17.376 7.842-29.145 0-8.882-3.435-13.322-10.303-13.322zm97.178 4.33c2.153 0 3.844 1.498 5.074 4.496l4.152 11.658c0 4.885-1.538 8.493-4.613 10.824-1.025.666-2.204 1-3.537 1-1.23 0-2.306-.666-3.228-1.998-4.92 20.539-7.893 34.638-8.918 42.299-2.358 17.653-4.202 29.034-5.535 34.141-1.23 5.107-2.973 12.434-5.229 21.982-5.535 23.093-10.815 34.639-15.838 34.639-3.588 0-5.381-2.276-5.381-6.828 0-2.442.717-4.607 2.152-6.494 1.845-4.996 3.792-12.378 5.842-22.148s3.64-16.932 4.768-21.484c1.128-4.552 2.203-10.324 3.228-17.318l3.383-21.984c3.178-20.095 5.843-33.75 7.996-40.967 4.51-14.544 9.738-21.816 15.684-21.816zm71.912 149.137c2.611 0 4.589.716 5.932 2.147 1.343 1.43 2.016 3.264 2.016 5.502 0 2.176-1.083 4.819-3.246 7.928-2.089 3.109-4.849 4.664-8.281 4.664-1.268 0-2.275-.342-3.022-1.025-.746-.622-1.119-1.338-1.119-2.147 0-.746.112-1.336.336-1.772-3.059-.933-4.59-2.768-4.59-5.504 0-2.798 1.343-5.129 4.029-6.994 2.76-1.865 5.409-2.799 7.945-2.799z"/></svg>